<svg  viewBox="0 0 24 24" fill="none" xmlns="http://www.w3.org/2000/svg" xmlns:xlink="http://www.w3.org/1999/xlink">
	<desc>
			Created with Pixso.
	</desc>
	<defs>
		<clipPath id="clip64_2319">
			<rect id="user" rx="0.000000" width="23.000000" height="23.000000" transform="translate(0.500000 0.500000)" fill="white" fill-opacity="0"/>
		</clipPath>
	</defs>
	<g clip-path="url(#clip64_2319)">
		<path id="Vector" d="M13.29 12.22C13.83 11.75 14.26 11.18 14.55 10.54C14.84 9.9 15 9.2 15 8.5C15 7.17 14.47 5.9 13.53 4.96C12.59 4.02 11.32 3.5 10 3.5C8.67 3.5 7.4 4.02 6.46 4.96C5.52 5.9 5 7.17 5 8.5C5 9.2 5.15 9.9 5.44 10.54C5.73 11.18 6.16 11.75 6.7 12.22C5.3 12.85 4.11 13.87 3.27 15.16C2.44 16.45 2 17.96 2 19.5C2 19.76 2.1 20.01 2.29 20.2C2.48 20.39 2.73 20.5 3 20.5C3.26 20.5 3.51 20.39 3.7 20.2C3.89 20.01 4 19.76 4 19.5C4 17.9 4.63 16.38 5.75 15.25C6.88 14.13 8.4 13.5 10 13.5C11.59 13.5 13.11 14.13 14.24 15.25C15.36 16.38 16 17.9 16 19.5C16 19.76 16.1 20.01 16.29 20.2C16.48 20.39 16.73 20.5 17 20.5C17.26 20.5 17.51 20.39 17.7 20.2C17.89 20.01 18 19.76 18 19.5C17.99 17.96 17.55 16.45 16.72 15.16C15.88 13.87 14.69 12.85 13.29 12.22ZM10 11.5C9.4 11.5 8.82 11.32 8.33 10.99C7.83 10.66 7.45 10.19 7.22 9.64C7 9.09 6.94 8.49 7.05 7.91C7.17 7.33 7.45 6.79 7.87 6.37C8.29 5.95 8.83 5.67 9.41 5.55C9.99 5.44 10.6 5.5 11.14 5.72C11.69 5.95 12.16 6.33 12.49 6.83C12.82 7.32 13 7.9 13 8.5C13 9.29 12.68 10.05 12.12 10.62C11.55 11.18 10.79 11.5 10 11.5ZM21.71 9.12C21.61 9.03 21.5 8.96 21.38 8.91C21.26 8.86 21.13 8.83 21 8.83C20.86 8.83 20.73 8.86 20.61 8.91C20.49 8.96 20.38 9.03 20.29 9.12L18.29 11.12L17.66 10.5C17.57 10.4 17.46 10.33 17.34 10.28C17.22 10.23 17.09 10.2 16.95 10.2C16.82 10.2 16.69 10.23 16.57 10.28C16.45 10.33 16.34 10.4 16.25 10.5C16.06 10.68 15.95 10.94 15.95 11.2C15.95 11.46 16.06 11.72 16.25 11.9L17.58 13.25C17.77 13.43 18.03 13.54 18.29 13.54C18.55 13.54 18.81 13.43 19 13.25L21.66 10.58C21.77 10.48 21.85 10.37 21.9 10.25C21.96 10.13 21.99 9.99 22 9.86C22 9.72 21.98 9.59 21.93 9.46C21.88 9.34 21.8 9.22 21.71 9.12Z" fill="#1F1E1E" fill-opacity="1.000000" fill-rule="nonzero"/>
	</g>
</svg>
